<mxfile host="app.diagrams.net" modified="2021-08-12T07:31:30.927Z" agent="5.0 (X11; Linux x86_64) AppleWebKit/537.36 (KHTML, like Gecko) Chrome/92.0.4515.131 Safari/537.36" etag="eQ0H2zQEGORM64jUZpqi" version="14.9.6" type="github">
  <diagram id="eEimsXPc-l9rWnqa-BEe" name="Page-1">
    <mxGraphModel dx="1382" dy="728" grid="0" gridSize="10" guides="1" tooltips="1" connect="1" arrows="1" fold="1" page="1" pageScale="1" pageWidth="827" pageHeight="1169" math="0" shadow="0">
      <root>
        <mxCell id="0" />
        <mxCell id="1" parent="0" />
        <mxCell id="69OTsuSW8JY_TJRHmGo8-3" value="" style="edgeStyle=orthogonalEdgeStyle;curved=0;rounded=1;sketch=0;orthogonalLoop=1;jettySize=auto;html=1;" edge="1" parent="1" source="69OTsuSW8JY_TJRHmGo8-1" target="69OTsuSW8JY_TJRHmGo8-2">
          <mxGeometry relative="1" as="geometry" />
        </mxCell>
        <mxCell id="69OTsuSW8JY_TJRHmGo8-1" value="&lt;font style=&quot;font-size: 18px&quot;&gt;设备连接&lt;/font&gt;" style="rounded=1;whiteSpace=wrap;html=1;sketch=0;" vertex="1" parent="1">
          <mxGeometry x="210" y="260" width="120" height="60" as="geometry" />
        </mxCell>
        <mxCell id="69OTsuSW8JY_TJRHmGo8-5" value="" style="edgeStyle=orthogonalEdgeStyle;curved=0;rounded=1;sketch=0;orthogonalLoop=1;jettySize=auto;html=1;" edge="1" parent="1" source="69OTsuSW8JY_TJRHmGo8-2" target="69OTsuSW8JY_TJRHmGo8-4">
          <mxGeometry relative="1" as="geometry" />
        </mxCell>
        <mxCell id="69OTsuSW8JY_TJRHmGo8-2" value="&lt;span style=&quot;font-size: 18px&quot;&gt;获取设备key值&lt;/span&gt;" style="rounded=1;whiteSpace=wrap;html=1;sketch=0;" vertex="1" parent="1">
          <mxGeometry x="210" y="350" width="120" height="60" as="geometry" />
        </mxCell>
        <mxCell id="69OTsuSW8JY_TJRHmGo8-7" value="" style="edgeStyle=orthogonalEdgeStyle;curved=0;rounded=1;sketch=0;orthogonalLoop=1;jettySize=auto;html=1;" edge="1" parent="1" source="69OTsuSW8JY_TJRHmGo8-4" target="69OTsuSW8JY_TJRHmGo8-6">
          <mxGeometry relative="1" as="geometry" />
        </mxCell>
        <mxCell id="69OTsuSW8JY_TJRHmGo8-4" value="&lt;font style=&quot;font-size: 18px&quot;&gt;dbus:udisks2设备权限接口&lt;/font&gt;" style="rounded=1;whiteSpace=wrap;html=1;sketch=0;" vertex="1" parent="1">
          <mxGeometry x="210" y="440" width="120" height="60" as="geometry" />
        </mxCell>
        <mxCell id="69OTsuSW8JY_TJRHmGo8-6" value="&lt;font style=&quot;font-size: 18px&quot;&gt;挂载操作（只读/读写/拒绝）&lt;/font&gt;" style="rounded=1;whiteSpace=wrap;html=1;sketch=0;" vertex="1" parent="1">
          <mxGeometry x="210" y="525" width="120" height="60" as="geometry" />
        </mxCell>
      </root>
    </mxGraphModel>
  </diagram>
</mxfile>
